Coordinates
version=1
nRows=8
nColumns=63
inDegrees=yes

Units are S.I. units (second, meters, Newtons, ...)
If the header above contains a line with 'inDegrees', this indicates whether rotational values are in degrees (yes) or radians (no).

endheader
time	pelvis_tilt	pelvis_list	pelvis_rotation	pelvis_tx	pelvis_ty	pelvis_tz	hip_flexion_r	hip_adduction_r	hip_rotation_r	knee_angle_r	knee_angle_r_beta	ankle_angle_r	subtalar_angle_r	mtp_angle_r	hip_flexion_l	hip_adduction_l	hip_rotation_l	knee_angle_l	knee_angle_l_beta	ankle_angle_l	subtalar_angle_l	mtp_angle_l	L5_S1_Flex_Ext	L5_S1_Lat_Bending	L5_S1_axial_rotation	L4_L5_Flex_Ext	L4_L5_Lat_Bending	L4_L5_axial_rotation	L3_L4_Flex_Ext	L3_L4_Lat_Bending	L3_L4_axial_rotation	L2_L3_Flex_Ext	L2_L3_Lat_Bending	L2_L3_axial_rotation	L1_L2_Flex_Ext	L1_L2_Lat_Bending	L1_L2_axial_rotation	L1_T12_Flex_Ext	L1_T12_Lat_Bending	L1_T12_axial_rotation	Abs_r3	Abs_r2	Abs_r1	Abs_t1	Abs_t2	neck_flexion	neck_bending	neck_rotation	arm_flex_r	arm_add_r	arm_rot_r	elbow_flex_r	pro_sup_r	wrist_flex_r	wrist_dev_r	arm_flex_l	arm_add_l	arm_rot_l	elbow_flex_l	pro_sup_l	wrist_flex_l	wrist_dev_l
      1.81666667	      5.07612922	    -12.98595387	     95.26742530	      0.26731635	      0.69979019	      0.88496478	     11.49125713	      2.27913445	      7.53134752	      0.29741731	      0.00519091	     33.60124415	     -3.45377469	      0.00000000	     11.62743105	     -7.93822931	     -5.08017873	      7.42973584	      0.12967335	     36.01998356	     16.09731839	      0.00000000	      0.23649517	      0.33291426	      0.42987252	      0.43919518	      0.44277596	      0.45673956	      0.38853791	      0.80944773	      0.45673956	      0.27029033	      0.80944773	      0.37613846	      0.21960941	      0.67887875	      0.34927143	      0.13513334	      0.51568418	      0.32240439	      1.68926133	      3.76599266	      2.39082202	      0.00000000	      0.00000000	     27.39532485	      5.47654534	      6.03928268	      8.17359229	    -11.72123282	      6.18393024	    117.61482141	     59.66239229	     -7.37902861	     22.46161066	    -23.47541114	    -16.37307405	      0.39365087	    124.97668565	     87.89440170	    -12.34480867	      0.14688673
      1.83333333	      5.65014707	    -12.70602408	     95.25958941	      0.26788488	      0.70005259	      0.88593418	     11.37883220	      2.71727201	      7.58775071	      0.25691423	      0.00448400	     34.27885304	     -0.97093906	      0.00000000	     12.35286454	     -8.64243741	     -6.74695251	      8.68261617	      0.15154024	     37.58017538	     15.74361349	      0.00000000	      0.18745400	      0.34942117	      0.79079519	      0.34812083	      0.46473016	      0.84021989	      0.30796818	      0.84958264	      0.84021989	      0.21424118	      0.84958264	      0.69194579	      0.17406979	      0.71253966	      0.64252109	      0.10711122	      0.54125340	      0.59309639	      1.33896521	      3.95272220	      4.39816559	      0.00000000	      0.00000000	     27.30422334	      6.13431810	      4.55808427	     12.41161691	    -11.35218364	      4.04432398	    117.54209144	     59.27090190	     -5.30248846	     23.14620851	    -25.51780437	    -18.34761726	     -0.20081267	    126.65111264	     88.11167469	    -11.49028783	      1.68954852
      1.85000000	      6.11433855	    -12.38093249	     95.43503975	      0.26817352	      0.70011963	      0.88683798	     11.11166769	      3.01755046	      8.08300761	      0.24069344	      0.00420089	     34.52316691	     -0.13359891	      0.00000000	     13.23275806	     -9.16736280	     -7.32162160	     10.20715876	      0.17814853	     39.30441306	     14.36982535	      0.00000000	      0.13040964	      0.34697109	      1.13896589	      0.24218374	      0.46147156	      1.21015126	      0.21424999	      0.84362552	      1.21015126	      0.14904517	      0.84362552	      0.99659515	      0.12109839	      0.70754346	      0.92540978	      0.07451607	      0.53745823	      0.85422442	      0.93150300	      3.92500642	      6.33458658	      0.00000000	      0.00000000	     27.37024012	      6.80170439	      2.62920508	     16.47628407	    -11.21333777	      1.91563143	    117.61175794	     60.28839186	     -4.45965057	     22.73798945	    -27.27873984	    -20.39574319	     -0.91858860	    128.22472045	     88.25166977	    -11.15298958	      2.61009874
      1.86666667	      6.12922563	    -12.22222353	     95.20672293	      0.26921497	      0.69999332	      0.88698571	     10.82745883	      2.92683496	      8.32724046	      0.24704580	      0.00431176	     34.52610638	      0.85500031	      0.00000000	     13.88373457	     -9.27511577	     -8.18581156	     11.29566275	      0.19714651	     40.76202868	     13.20138869	      0.00000000	      0.10199751	      0.26872993	      1.67557906	      0.18941957	      0.35741080	      1.78030275	      0.16757171	      0.65338994	      1.78030275	      0.11657295	      0.65338994	      1.46613168	      0.09471489	      0.54799407	      1.36140798	      0.05828138	      0.41626266	      1.25668429	      0.72855800	      3.03992668	      9.31906805	      0.00000000	      0.00000000	     27.46106355	      6.03744699	     -2.14197182	     19.41138806	    -10.57436116	     -2.22794279	    118.12945761	     68.06044920	     -1.48291500	     22.05697954	    -28.15856006	    -23.26072043	     -1.44142196	    130.16031435	     88.21531792	     -9.72189506	      6.45212445
      1.88333333	      6.17346955	    -12.15872396	     95.26422690	      0.27004054	      0.69945567	      0.88701035	     10.51803593	      2.84126257	      8.58654875	      0.27202982	      0.00474782	     34.06383526	      0.84997082	      0.00000000	     14.84676873	     -9.28579092	     -7.77726610	     12.80515138	      0.22349205	     41.91713828	     11.20023742	      0.00000000	      0.07913711	      0.19203538	      2.06113432	      0.14696553	      0.25540705	      2.18995521	      0.13001436	      0.46691482	      2.18995521	      0.09044581	      0.46691482	      1.80349253	      0.07348672	      0.39159855	      1.67467163	      0.04521895	      0.29746280	      1.54585074	      0.56526849	      2.17234262	     11.46341074	      0.00000000	      0.00000000	     27.54342503	      5.86129387	     -5.86856794	     22.36308622	    -10.04439775	     -5.35255213	    118.89241828	     80.75509755	     -1.48218164	     20.10275280	    -29.35055497	    -26.12016297	     -2.27426051	    131.81194644	     87.92731373	     -8.91079280	      7.90543451
      1.90000000	      6.06286967	    -12.24149649	     95.42171544	      0.27082385	      0.69866760	      0.88683023	     10.26241484	      2.57977459	      9.17046686	      0.31731958	      0.00553827	     33.16343103	      0.12405641	      0.00000000	     15.84887021	     -8.98631082	     -6.53662734	     14.23697440	      0.24848208	     42.30920251	      8.74103450	      0.00000000	      0.06466924	      0.08631770	      2.36490497	      0.12009725	      0.11480254	      2.51271153	      0.10624510	      0.20987286	      2.51271153	      0.07391048	      0.20987286	      2.06929185	      0.06005186	      0.17601906	      1.92148529	      0.03695201	      0.13370612	      1.77367873	      0.46192594	      0.97644310	     13.15289196	      0.00000000	      0.00000000	     27.52997872	      5.38748484	    -10.14461314	     24.92659425	     -9.57031969	     -8.05518872	    119.62194701	     85.63759203	     -1.61981251	     18.58913999	    -30.70703826	    -29.28125479	     -3.36971747	    133.45077438	     87.35120730	     -8.16239503	      9.10764051
      1.91666667	      6.05162394	    -12.47931836	     95.57626378	      0.27160804	      0.69775848	      0.88654934	     10.18123528	      2.42877088	      9.28547100	      0.39427437	      0.00688139	     32.13431172	      0.09085029	      0.00000000	     16.88677938	     -8.82104722	     -5.94568219	     15.61229979	      0.27248604	     42.17268813	      7.34486683	      0.00000000	      0.06824980	     -0.01196842	      2.57194760	      0.12674671	     -0.01591800	      2.73269433	      0.11212760	     -0.02910002	      2.73269433	      0.07800270	     -0.02910002	      2.25045415	      0.06337677	     -0.02440600	      2.08970743	      0.03899794	     -0.01853908	      1.92896070	      0.48750153	     -0.13538916	     14.30440097	      0.00000000	      0.00000000	     27.43004292	      5.10487781	    -14.04824803	     27.06273553	     -9.00998333	    -10.23236024	    120.49439253	     86.83073872	     -1.83025185	     17.90603153	    -32.61399564	    -32.36323510	     -4.95806266	    134.82285057	     86.39395919	     -7.38232513	      9.54742135
      1.93333333	      6.33681204	    -12.51045201	     95.63223378	      0.27213605	      0.69731639	      0.88670231	      9.99883407	      2.63269242	      9.35969330	      0.46328512	      0.00808585	     30.98058843	      0.35332731	      0.00000000	     17.71422318	     -9.04644153	     -5.74972245	     17.10061992	      0.29846212	     41.66477249	      6.29400524	      0.00000000	      0.04290510	     -0.05212994	      2.67856383	      0.07967905	     -0.06933282	      2.84597407	      0.07048878	     -0.12674873	      2.84597407	      0.04903623	     -0.12674873	      2.34374335	      0.03984167	     -0.10630337	      2.17633311	      0.02451597	     -0.08074928	      2.00892287	      0.30646681	     -0.58970430	     14.89736847	      0.00000000	      0.00000000	     27.25410798	      5.46516476	    -16.16910755	     29.03799276	     -8.39816031	    -11.57523125	    121.17914453	     86.98256597	     -2.17206212	     17.68423916	    -34.83861781	    -34.89883170	     -6.84924359	    135.57142468	     85.57034951	     -7.08450775	      9.18400081
